solid OpenSCAD_Model
  facet normal -0.259892 -0.0844444 0.961938
    outer loop
      vertex -3.08235 1.00152 -0.744867
      vertex -4.48478 -0.205297 -1.22971
      vertex -3.74893 -2.47 -1.22971
    endloop
  endfacet
  facet normal -0.259891 -0.0844459 0.961939
    outer loop
      vertex -9.73725 -1.16079 -2.73267
      vertex -4.48478 -0.205297 -1.22971
      vertex -3.08235 1.00152 -0.744867
    endloop
  endfacet
  facet normal -0.259891 -0.0844424 0.961939
    outer loop
      vertex -4.48478 -0.205297 -1.22971
      vertex -9.73725 -1.16079 -2.73267
      vertex -9.5165 -1.8402 -2.73267
    endloop
  endfacet
  facet normal -0.259892 -0.0844436 0.961938
    outer loop
      vertex -3.08235 1.00152 -0.744867
      vertex -1.905 -2.62201 -0.744867
      vertex 0 0 -1e-05
    endloop
  endfacet
  facet normal -0.259893 -0.084444 0.961938
    outer loop
      vertex -3.74893 -2.47 -1.22971
      vertex -1.905 -2.62201 -0.744867
      vertex -3.08235 1.00152 -0.744867
    endloop
  endfacet
  facet normal -0.259893 -0.0844387 0.961939
    outer loop
      vertex -3.74893 -2.47 -1.22971
      vertex -8.5599 -4.78431 -2.73267
      vertex -1.905 -2.62201 -0.744867
    endloop
  endfacet
  facet normal -0.259891 -0.0844424 0.961939
    outer loop
      vertex -8.5599 -4.78431 -2.73267
      vertex -3.74893 -2.47 -1.22971
      vertex -8.78065 -4.1049 -2.73267
    endloop
  endfacet
  facet normal -4.34994e-06 -0.273266 0.961938
    outer loop
      vertex 1.905 -2.62201 -0.744867
      vertex 1.19062 -4.32872 -1.22971
      vertex 1.905 -9.61938 -2.73267
    endloop
  endfacet
  facet normal 0 -0.273266 0.961938
    outer loop
      vertex -1.905 -2.62201 -0.744867
      vertex 1.905 -2.62201 -0.744867
      vertex 0 0 -1e-05
    endloop
  endfacet
  facet normal 0 -0.273268 0.961938
    outer loop
      vertex 1.905 -2.62201 -0.744867
      vertex -1.905 -2.62201 -0.744867
      vertex 1.19062 -4.32872 -1.22971
    endloop
  endfacet
  facet normal 0 -0.273268 0.961938
    outer loop
      vertex 1.19062 -4.32872 -1.22971
      vertex -1.905 -2.62201 -0.744867
      vertex -1.19062 -4.32872 -1.22971
    endloop
  endfacet
  facet normal 4.34994e-06 -0.273266 0.961938
    outer loop
      vertex -1.905 -9.61938 -2.73267
      vertex -1.19062 -4.32872 -1.22971
      vertex -1.905 -2.62201 -0.744867
    endloop
  endfacet
  facet normal 0 -0.273266 0.961939
    outer loop
      vertex -1.19062 -4.32872 -1.22971
      vertex -1.905 -9.61938 -2.73267
      vertex -1.19062 -9.61938 -2.73267
    endloop
  endfacet
  facet normal 0 -0.273266 0.961939
    outer loop
      vertex 1.905 -9.61938 -2.73267
      vertex 1.19062 -4.32872 -1.22971
      vertex 1.19062 -9.61938 -2.73267
    endloop
  endfacet
  facet normal 0.259891 -0.0844424 0.961939
    outer loop
      vertex 9.73725 -1.16079 -2.73267
      vertex 4.48478 -0.205297 -1.22971
      vertex 9.5165 -1.8402 -2.73267
    endloop
  endfacet
  facet normal 0.259892 -0.0844444 0.961938
    outer loop
      vertex 4.48478 -0.205297 -1.22971
      vertex 3.08235 1.00152 -0.744867
      vertex 3.74893 -2.47 -1.22971
    endloop
  endfacet
  facet normal 0.259891 -0.0844459 0.961939
    outer loop
      vertex 3.08235 1.00152 -0.744867
      vertex 4.48478 -0.205297 -1.22971
      vertex 9.73725 -1.16079 -2.73267
    endloop
  endfacet
  facet normal 0.259891 -0.0844424 0.961939
    outer loop
      vertex 3.74893 -2.47 -1.22971
      vertex 8.5599 -4.78431 -2.73267
      vertex 8.78065 -4.1049 -2.73267
    endloop
  endfacet
  facet normal 0.259893 -0.0844387 0.961939
    outer loop
      vertex 3.74893 -2.47 -1.22971
      vertex 1.905 -2.62201 -0.744867
      vertex 8.5599 -4.78431 -2.73267
    endloop
  endfacet
  facet normal 0.259893 -0.084444 0.961938
    outer loop
      vertex 3.08235 1.00152 -0.744867
      vertex 1.905 -2.62201 -0.744867
      vertex 3.74893 -2.47 -1.22971
    endloop
  endfacet
  facet normal 0.259892 -0.0844436 0.961938
    outer loop
      vertex 1.905 -2.62201 -0.744867
      vertex 3.08235 1.00152 -0.744867
      vertex 0 0 -1e-05
    endloop
  endfacet
  facet normal 0.16062 0.221077 0.961939
    outer loop
      vertex 4.11295 8.90197 -2.73267
      vertex 1.58112 4.20184 -1.22971
      vertex 4.6909 8.48207 -2.73267
    endloop
  endfacet
  facet normal 0.160625 0.221075 0.961938
    outer loop
      vertex 1.58112 4.20184 -1.22971
      vertex 4.11295 8.90197 -2.73267
      vertex 1.05784e-08 3.24098 -0.744867
    endloop
  endfacet
  facet normal 0.160622 0.221076 0.961939
    outer loop
      vertex 3.50759 2.80218 -1.22971
      vertex 7.19531 6.66251 -2.73267
      vertex 6.61737 7.08241 -2.73267
    endloop
  endfacet
  facet normal 0.160619 0.221079 0.961939
    outer loop
      vertex 3.50759 2.80218 -1.22971
      vertex 3.08235 1.00152 -0.744867
      vertex 7.19531 6.66251 -2.73267
    endloop
  endfacet
  facet normal 0.160622 0.221078 0.961938
    outer loop
      vertex 1.58112 4.20184 -1.22971
      vertex 3.08235 1.00152 -0.744867
      vertex 3.50759 2.80218 -1.22971
    endloop
  endfacet
  facet normal 0.160623 0.221078 0.961938
    outer loop
      vertex 1.05784e-08 3.24098 -0.744867
      vertex 3.08235 1.00152 -0.744867
      vertex 1.58112 4.20184 -1.22971
    endloop
  endfacet
  facet normal 0.160622 0.221077 0.961938
    outer loop
      vertex 0 0 -1e-05
      vertex 3.08235 1.00152 -0.744867
      vertex 1.05784e-08 3.24098 -0.744867
    endloop
  endfacet
  facet normal 0 0.223985 0.974593
    outer loop
      vertex 0 0 -1e-05
      vertex 1.05784e-08 3.24098 -0.744867
      vertex -6.73336e-09 3.24098 -0.744867
    endloop
  endfacet
  facet normal -0.160625 0.221075 0.961938
    outer loop
      vertex -4.11295 8.90197 -2.73267
      vertex -1.58112 4.20184 -1.22971
      vertex -6.73336e-09 3.24098 -0.744867
    endloop
  endfacet
  facet normal -0.16062 0.221077 0.961939
    outer loop
      vertex -1.58112 4.20184 -1.22971
      vertex -4.11295 8.90197 -2.73267
      vertex -4.6909 8.48207 -2.73267
    endloop
  endfacet
  facet normal -0.160623 0.221078 0.961938
    outer loop
      vertex -3.08235 1.00152 -0.744867
      vertex -6.73336e-09 3.24098 -0.744867
      vertex -1.58112 4.20184 -1.22971
    endloop
  endfacet
  facet normal -0.160622 0.221077 0.961938
    outer loop
      vertex -6.73336e-09 3.24098 -0.744867
      vertex -3.08235 1.00152 -0.744867
      vertex 0 0 -1e-05
    endloop
  endfacet
  facet normal -0.160622 0.221078 0.961938
    outer loop
      vertex -3.50759 2.80218 -1.22971
      vertex -3.08235 1.00152 -0.744867
      vertex -1.58112 4.20184 -1.22971
    endloop
  endfacet
  facet normal -0.160622 0.221076 0.961939
    outer loop
      vertex -7.19531 6.66251 -2.73267
      vertex -3.50759 2.80218 -1.22971
      vertex -6.61737 7.08241 -2.73267
    endloop
  endfacet
  facet normal -0.160619 0.221079 0.961939
    outer loop
      vertex -3.50759 2.80218 -1.22971
      vertex -7.19531 6.66251 -2.73267
      vertex -3.08235 1.00152 -0.744867
    endloop
  endfacet
  facet normal -0.914857 -0.29726 -0.273265
    outer loop
      vertex -8.74707 -0.839059 -6.39765
      vertex -8.89763 -1.63912 -5.02328
      vertex -9.73725 -1.16079 -2.73267
    endloop
  endfacet
  facet normal -0.914858 -0.297257 -0.273263
    outer loop
      vertex -7.56971 -4.46258 -6.39765
      vertex -8.89763 -1.63912 -5.02328
      vertex -8.74707 -0.839059 -6.39765
    endloop
  endfacet
  facet normal -0.914857 -0.297253 -0.273271
    outer loop
      vertex -8.89763 -1.63912 -5.02328
      vertex -7.56971 -4.46258 -6.39765
      vertex -8.16179 -3.90382 -5.02328
    endloop
  endfacet
  facet normal -0.914856 -0.297261 -0.273267
    outer loop
      vertex -8.5599 -4.78431 -2.73267
      vertex -8.16179 -3.90382 -5.02328
      vertex -7.56971 -4.46258 -6.39765
    endloop
  endfacet
  facet normal -0.91486 -0.297251 -0.273264
    outer loop
      vertex -8.16179 -3.90382 -5.02328
      vertex -8.5599 -4.78431 -2.73267
      vertex -8.78065 -4.1049 -2.73267
    endloop
  endfacet
  facet normal -0.914859 -0.297251 -0.273268
    outer loop
      vertex -9.73725 -1.16079 -2.73267
      vertex -8.89763 -1.63912 -5.02328
      vertex -9.5165 -1.8402 -2.73267
    endloop
  endfacet
  facet normal 0.309016 -0.951057 3.14254e-07
    outer loop
      vertex -1.905 -2.62201 -6.39765
      vertex -8.5599 -4.78431 -2.73267
      vertex -7.56971 -4.46258 -6.39765
    endloop
  endfacet
  facet normal 0.309016 -0.951057 0
    outer loop
      vertex -8.5599 -4.78431 -2.73267
      vertex -1.905 -2.62201 -6.39765
      vertex -1.905 -2.62201 -0.744867
    endloop
  endfacet
  facet normal -0.309017 0.951056 0
    outer loop
      vertex -3.08235 1.00152 -6.39765
      vertex -9.73725 -1.16079 -2.73267
      vertex -3.08235 1.00152 -0.744867
    endloop
  endfacet
  facet normal -0.309017 0.951057 5.27548e-07
    outer loop
      vertex -9.73725 -1.16079 -2.73267
      vertex -3.08235 1.00152 -6.39765
      vertex -8.74707 -0.839059 -6.39765
    endloop
  endfacet
  facet normal -0.259892 -0.0844445 0.961938
    outer loop
      vertex -3.86592 -0.00421566 -3.52031
      vertex -8.16179 -3.90382 -5.02328
      vertex -3.13007 -2.26892 -3.52031
    endloop
  endfacet
  facet normal -0.259893 -0.0844437 0.961938
    outer loop
      vertex -8.16179 -3.90382 -5.02328
      vertex -3.86592 -0.00421566 -3.52031
      vertex -8.89763 -1.63912 -5.02328
    endloop
  endfacet
  facet normal -0.914858 -0.297256 -0.273265
    outer loop
      vertex -3.13007 -2.26892 -3.52031
      vertex -4.48478 -0.205297 -1.22971
      vertex -3.86592 -0.00421566 -3.52031
    endloop
  endfacet
  facet normal -0.914858 -0.297257 -0.273265
    outer loop
      vertex -4.48478 -0.205297 -1.22971
      vertex -3.13007 -2.26892 -3.52031
      vertex -3.74893 -2.47 -1.22971
    endloop
  endfacet
  facet normal -0.309016 0.951057 3.08748e-07
    outer loop
      vertex -3.13007 -2.26892 -3.52031
      vertex -8.78065 -4.1049 -2.73267
      vertex -3.74893 -2.47 -1.22971
    endloop
  endfacet
  facet normal -0.309016 0.951057 3.08746e-07
    outer loop
      vertex -8.78065 -4.1049 -2.73267
      vertex -3.13007 -2.26892 -3.52031
      vertex -8.16179 -3.90382 -5.02328
    endloop
  endfacet
  facet normal 0.309017 -0.951057 -6.81811e-07
    outer loop
      vertex -9.5165 -1.8402 -2.73267
      vertex -3.86592 -0.00421566 -3.52031
      vertex -4.48478 -0.205297 -1.22971
    endloop
  endfacet
  facet normal 0.309017 -0.951056 1.29818e-06
    outer loop
      vertex -3.86592 -0.00421566 -3.52031
      vertex -9.5165 -1.8402 -2.73267
      vertex -8.89763 -1.63912 -5.02328
    endloop
  endfacet
  facet normal 0 -0.961939 -0.273265
    outer loop
      vertex -1.905 -9.61938 -2.73267
      vertex -1.19062 -8.96867 -5.02328
      vertex -1.19062 -9.61938 -2.73267
    endloop
  endfacet
  facet normal 0 -0.961938 -0.273267
    outer loop
      vertex -1.19062 -8.96867 -5.02328
      vertex -1.905 -8.57824 -6.39765
      vertex 1.19062 -8.96867 -5.02328
    endloop
  endfacet
  facet normal -2.41004e-06 -0.961939 -0.273266
    outer loop
      vertex -1.905 -8.57824 -6.39765
      vertex -1.19062 -8.96867 -5.02328
      vertex -1.905 -9.61938 -2.73267
    endloop
  endfacet
  facet normal 0 -0.961939 -0.273265
    outer loop
      vertex 1.19062 -8.96867 -5.02328
      vertex 1.905 -9.61938 -2.73267
      vertex 1.19062 -9.61938 -2.73267
    endloop
  endfacet
  facet normal 2.41004e-06 -0.961939 -0.273266
    outer loop
      vertex 1.19062 -8.96867 -5.02328
      vertex 1.905 -8.57824 -6.39765
      vertex 1.905 -9.61938 -2.73267
    endloop
  endfacet
  facet normal -0 -0.961938 -0.273267
    outer loop
      vertex 1.905 -8.57824 -6.39765
      vertex 1.19062 -8.96867 -5.02328
      vertex -1.905 -8.57824 -6.39765
    endloop
  endfacet
  facet normal 1 0 0
    outer loop
      vertex 1.905 -2.62201 -0.744867
      vertex 1.905 -8.57824 -6.39765
      vertex 1.905 -2.62201 -6.39765
    endloop
  endfacet
  facet normal 1 0 -0
    outer loop
      vertex 1.905 -8.57824 -6.39765
      vertex 1.905 -2.62201 -0.744867
      vertex 1.905 -9.61938 -2.73267
    endloop
  endfacet
  facet normal -1 0 0
    outer loop
      vertex -1.905 -8.57824 -6.39765
      vertex -1.905 -2.62201 -0.744867
      vertex -1.905 -2.62201 -6.39765
    endloop
  endfacet
  facet normal -1 0 0
    outer loop
      vertex -1.905 -2.62201 -0.744867
      vertex -1.905 -8.57824 -6.39765
      vertex -1.905 -9.61938 -2.73267
    endloop
  endfacet
  facet normal 0 -0.273267 0.961938
    outer loop
      vertex -1.19062 -3.67801 -3.52031
      vertex 1.19062 -8.96867 -5.02328
      vertex 1.19062 -3.67801 -3.52031
    endloop
  endfacet
  facet normal 0 -0.273267 0.961938
    outer loop
      vertex 1.19062 -8.96867 -5.02328
      vertex -1.19062 -3.67801 -3.52031
      vertex -1.19062 -8.96867 -5.02328
    endloop
  endfacet
  facet normal 0 -0.961939 -0.273266
    outer loop
      vertex -1.19062 -3.67801 -3.52031
      vertex 1.19062 -4.32872 -1.22971
      vertex -1.19062 -4.32872 -1.22971
    endloop
  endfacet
  facet normal 0 -0.961939 -0.273266
    outer loop
      vertex 1.19062 -4.32872 -1.22971
      vertex -1.19062 -3.67801 -3.52031
      vertex 1.19062 -3.67801 -3.52031
    endloop
  endfacet
  facet normal -1 0 0
    outer loop
      vertex 1.19062 -8.96867 -5.02328
      vertex 1.19062 -4.32872 -1.22971
      vertex 1.19062 -3.67801 -3.52031
    endloop
  endfacet
  facet normal -1 0 0
    outer loop
      vertex 1.19062 -4.32872 -1.22971
      vertex 1.19062 -8.96867 -5.02328
      vertex 1.19062 -9.61938 -2.73267
    endloop
  endfacet
  facet normal 1 0 0
    outer loop
      vertex -1.19062 -4.32872 -1.22971
      vertex -1.19062 -8.96867 -5.02328
      vertex -1.19062 -3.67801 -3.52031
    endloop
  endfacet
  facet normal 1 0 -0
    outer loop
      vertex -1.19062 -8.96867 -5.02328
      vertex -1.19062 -4.32872 -1.22971
      vertex -1.19062 -9.61938 -2.73267
    endloop
  endfacet
  facet normal 0.914859 -0.297251 -0.273268
    outer loop
      vertex 9.73725 -1.16079 -2.73267
      vertex 9.5165 -1.8402 -2.73267
      vertex 8.89763 -1.63912 -5.02328
    endloop
  endfacet
  facet normal 0.914857 -0.29726 -0.273265
    outer loop
      vertex 8.89763 -1.63912 -5.02328
      vertex 8.74707 -0.839059 -6.39765
      vertex 9.73725 -1.16079 -2.73267
    endloop
  endfacet
  facet normal 0.914857 -0.297253 -0.273271
    outer loop
      vertex 7.56971 -4.46258 -6.39765
      vertex 8.89763 -1.63912 -5.02328
      vertex 8.16179 -3.90382 -5.02328
    endloop
  endfacet
  facet normal 0.914858 -0.297257 -0.273263
    outer loop
      vertex 8.89763 -1.63912 -5.02328
      vertex 7.56971 -4.46258 -6.39765
      vertex 8.74707 -0.839059 -6.39765
    endloop
  endfacet
  facet normal 0.91486 -0.297251 -0.273264
    outer loop
      vertex 8.5599 -4.78431 -2.73267
      vertex 8.16179 -3.90382 -5.02328
      vertex 8.78065 -4.1049 -2.73267
    endloop
  endfacet
  facet normal 0.914856 -0.297261 -0.273267
    outer loop
      vertex 8.16179 -3.90382 -5.02328
      vertex 8.5599 -4.78431 -2.73267
      vertex 7.56971 -4.46258 -6.39765
    endloop
  endfacet
  facet normal 0.309017 0.951057 5.27548e-07
    outer loop
      vertex 3.08235 1.00152 -6.39765
      vertex 9.73725 -1.16079 -2.73267
      vertex 8.74707 -0.839059 -6.39765
    endloop
  endfacet
  facet normal 0.309017 0.951056 0
    outer loop
      vertex 9.73725 -1.16079 -2.73267
      vertex 3.08235 1.00152 -6.39765
      vertex 3.08235 1.00152 -0.744867
    endloop
  endfacet
  facet normal -0.309016 -0.951057 0
    outer loop
      vertex 1.905 -2.62201 -6.39765
      vertex 8.5599 -4.78431 -2.73267
      vertex 1.905 -2.62201 -0.744867
    endloop
  endfacet
  facet normal -0.309016 -0.951057 3.14254e-07
    outer loop
      vertex 8.5599 -4.78431 -2.73267
      vertex 1.905 -2.62201 -6.39765
      vertex 7.56971 -4.46258 -6.39765
    endloop
  endfacet
  facet normal 0.259893 -0.0844437 0.961938
    outer loop
      vertex 3.86592 -0.00421569 -3.52031
      vertex 8.16179 -3.90382 -5.02328
      vertex 8.89763 -1.63912 -5.02328
    endloop
  endfacet
  facet normal 0.259892 -0.0844445 0.961938
    outer loop
      vertex 8.16179 -3.90382 -5.02328
      vertex 3.86592 -0.00421569 -3.52031
      vertex 3.13007 -2.26892 -3.52031
    endloop
  endfacet
  facet normal 0.914858 -0.297256 -0.273265
    outer loop
      vertex 4.48478 -0.205297 -1.22971
      vertex 3.13007 -2.26892 -3.52031
      vertex 3.86592 -0.00421569 -3.52031
    endloop
  endfacet
  facet normal 0.914858 -0.297257 -0.273265
    outer loop
      vertex 3.13007 -2.26892 -3.52031
      vertex 4.48478 -0.205297 -1.22971
      vertex 3.74893 -2.47 -1.22971
    endloop
  endfacet
  facet normal -0.309017 -0.951057 -6.70285e-07
    outer loop
      vertex 3.86592 -0.00421569 -3.52031
      vertex 9.5165 -1.8402 -2.73267
      vertex 4.48478 -0.205297 -1.22971
    endloop
  endfacet
  facet normal -0.309017 -0.951056 1.29677e-06
    outer loop
      vertex 9.5165 -1.8402 -2.73267
      vertex 3.86592 -0.00421569 -3.52031
      vertex 8.89763 -1.63912 -5.02328
    endloop
  endfacet
  facet normal 0.309016 0.951057 3.08748e-07
    outer loop
      vertex 8.78065 -4.1049 -2.73267
      vertex 3.13007 -2.26892 -3.52031
      vertex 3.74893 -2.47 -1.22971
    endloop
  endfacet
  facet normal 0.309016 0.951057 3.08746e-07
    outer loop
      vertex 3.13007 -2.26892 -3.52031
      vertex 8.78065 -4.1049 -2.73267
      vertex 8.16179 -3.90382 -5.02328
    endloop
  endfacet
  facet normal 0.565415 0.778223 -0.273267
    outer loop
      vertex 7.19531 6.66251 -2.73267
      vertex 6.23489 6.55597 -5.02328
      vertex 6.61737 7.08241 -2.73267
    endloop
  endfacet
  facet normal 0.565416 0.778223 -0.273265
    outer loop
      vertex 6.23489 6.55597 -5.02328
      vertex 6.58334 5.82021 -6.39765
      vertex 4.30842 7.95564 -5.02328
    endloop
  endfacet
  facet normal 0.565413 0.778225 -0.273266
    outer loop
      vertex 6.58334 5.82021 -6.39765
      vertex 6.23489 6.55597 -5.02328
      vertex 7.19531 6.66251 -2.73267
    endloop
  endfacet
  facet normal 0.565409 0.778229 -0.273264
    outer loop
      vertex 4.30842 7.95564 -5.02328
      vertex 4.11295 8.90197 -2.73267
      vertex 4.6909 8.48207 -2.73267
    endloop
  endfacet
  facet normal 0.565402 0.778233 -0.273266
    outer loop
      vertex 4.30842 7.95564 -5.02328
      vertex 3.50098 8.05967 -6.39765
      vertex 4.11295 8.90197 -2.73267
    endloop
  endfacet
  facet normal 0.565411 0.778224 -0.273272
    outer loop
      vertex 3.50098 8.05967 -6.39765
      vertex 4.30842 7.95564 -5.02328
      vertex 6.58334 5.82021 -6.39765
    endloop
  endfacet
  facet normal -0.809017 0.587785 8.37136e-07
    outer loop
      vertex 1.05784e-08 3.24098 -6.39765
      vertex 4.11295 8.90197 -2.73267
      vertex 3.50098 8.05967 -6.39765
    endloop
  endfacet
  facet normal -0.809017 0.587785 0
    outer loop
      vertex 4.11295 8.90197 -2.73267
      vertex 1.05784e-08 3.24098 -6.39765
      vertex 1.05784e-08 3.24098 -0.744867
    endloop
  endfacet
  facet normal 0.809016 -0.587786 0
    outer loop
      vertex 3.08235 1.00152 -6.39765
      vertex 7.19531 6.66251 -2.73267
      vertex 3.08235 1.00152 -0.744867
    endloop
  endfacet
  facet normal 0.809016 -0.587786 -4.50872e-07
    outer loop
      vertex 7.19531 6.66251 -2.73267
      vertex 3.08235 1.00152 -6.39765
      vertex 6.58334 5.82021 -6.39765
    endloop
  endfacet
  facet normal 0.160623 0.221077 0.961938
    outer loop
      vertex 4.30842 7.95564 -5.02328
      vertex 3.12511 2.27574 -3.52031
      vertex 6.23489 6.55597 -5.02328
    endloop
  endfacet
  facet normal 0.160622 0.221078 0.961938
    outer loop
      vertex 3.12511 2.27574 -3.52031
      vertex 4.30842 7.95564 -5.02328
      vertex 1.19864 3.6754 -3.52031
    endloop
  endfacet
  facet normal 0.565412 0.778225 -0.273268
    outer loop
      vertex 3.12511 2.27574 -3.52031
      vertex 1.58112 4.20184 -1.22971
      vertex 3.50759 2.80218 -1.22971
    endloop
  endfacet
  facet normal 0.565412 0.778225 -0.273268
    outer loop
      vertex 1.58112 4.20184 -1.22971
      vertex 3.12511 2.27574 -3.52031
      vertex 1.19864 3.6754 -3.52031
    endloop
  endfacet
  facet normal 0.809016 -0.587786 7.79794e-07
    outer loop
      vertex 1.19864 3.6754 -3.52031
      vertex 4.6909 8.48207 -2.73267
      vertex 1.58112 4.20184 -1.22971
    endloop
  endfacet
  facet normal 0.809016 -0.587786 -1.8867e-06
    outer loop
      vertex 4.6909 8.48207 -2.73267
      vertex 1.19864 3.6754 -3.52031
      vertex 4.30842 7.95564 -5.02328
    endloop
  endfacet
  facet normal -0.809016 0.587786 -7.79791e-07
    outer loop
      vertex 3.12511 2.27574 -3.52031
      vertex 6.61737 7.08241 -2.73267
      vertex 6.23489 6.55597 -5.02328
    endloop
  endfacet
  facet normal -0.809016 0.587786 -7.79794e-07
    outer loop
      vertex 6.61737 7.08241 -2.73267
      vertex 3.12511 2.27574 -3.52031
      vertex 3.50759 2.80218 -1.22971
    endloop
  endfacet
  facet normal -0.565409 0.778229 -0.273264
    outer loop
      vertex -4.11295 8.90197 -2.73267
      vertex -4.30842 7.95564 -5.02328
      vertex -4.6909 8.48207 -2.73267
    endloop
  endfacet
  facet normal -0.565411 0.778224 -0.273272
    outer loop
      vertex -6.58334 5.82021 -6.39765
      vertex -4.30842 7.95564 -5.02328
      vertex -3.50098 8.05967 -6.39765
    endloop
  endfacet
  facet normal -0.565402 0.778233 -0.273266
    outer loop
      vertex -3.50098 8.05967 -6.39765
      vertex -4.30842 7.95564 -5.02328
      vertex -4.11295 8.90197 -2.73267
    endloop
  endfacet
  facet normal -0.565415 0.778223 -0.273267
    outer loop
      vertex -6.23489 6.55597 -5.02328
      vertex -7.19531 6.66251 -2.73267
      vertex -6.61737 7.08241 -2.73267
    endloop
  endfacet
  facet normal -0.565413 0.778225 -0.273266
    outer loop
      vertex -6.23489 6.55597 -5.02328
      vertex -6.58334 5.82021 -6.39765
      vertex -7.19531 6.66251 -2.73267
    endloop
  endfacet
  facet normal -0.565416 0.778223 -0.273265
    outer loop
      vertex -4.30842 7.95564 -5.02328
      vertex -6.58334 5.82021 -6.39765
      vertex -6.23489 6.55597 -5.02328
    endloop
  endfacet
  facet normal -0.809016 -0.587786 -4.50872e-07
    outer loop
      vertex -3.08235 1.00152 -6.39765
      vertex -7.19531 6.66251 -2.73267
      vertex -6.58334 5.82021 -6.39765
    endloop
  endfacet
  facet normal -0.809016 -0.587786 0
    outer loop
      vertex -7.19531 6.66251 -2.73267
      vertex -3.08235 1.00152 -6.39765
      vertex -3.08235 1.00152 -0.744867
    endloop
  endfacet
  facet normal 0.809017 0.587785 2.47763e-09
    outer loop
      vertex 1.05784e-08 3.24098 -6.39765
      vertex -4.11295 8.90197 -2.73267
      vertex -6.73336e-09 3.24098 -0.744867
    endloop
  endfacet
  facet normal 0.809017 0.587785 8.36319e-07
    outer loop
      vertex -4.11295 8.90197 -2.73267
      vertex 1.05784e-08 3.24098 -6.39765
      vertex -3.50098 8.05967 -6.39765
    endloop
  endfacet
  facet normal -0 1 0
    outer loop
      vertex -6.73336e-09 3.24098 -0.744867
      vertex 1.05784e-08 3.24098 -0.744867
      vertex 1.05784e-08 3.24098 -6.39765
    endloop
  endfacet
  facet normal -0.160622 0.221078 0.961938
    outer loop
      vertex -4.30842 7.95564 -5.02328
      vertex -3.12511 2.27574 -3.52031
      vertex -1.19864 3.6754 -3.52031
    endloop
  endfacet
  facet normal -0.160623 0.221077 0.961938
    outer loop
      vertex -3.12511 2.27574 -3.52031
      vertex -4.30842 7.95564 -5.02328
      vertex -6.23489 6.55597 -5.02328
    endloop
  endfacet
  facet normal -0.565412 0.778225 -0.273268
    outer loop
      vertex -3.12511 2.27574 -3.52031
      vertex -1.58112 4.20184 -1.22971
      vertex -1.19864 3.6754 -3.52031
    endloop
  endfacet
  facet normal -0.565412 0.778225 -0.273268
    outer loop
      vertex -1.58112 4.20184 -1.22971
      vertex -3.12511 2.27574 -3.52031
      vertex -3.50759 2.80218 -1.22971
    endloop
  endfacet
  facet normal 0.809016 0.587786 -7.79794e-07
    outer loop
      vertex -3.12511 2.27574 -3.52031
      vertex -6.61737 7.08241 -2.73267
      vertex -3.50759 2.80218 -1.22971
    endloop
  endfacet
  facet normal 0.809016 0.587786 -7.79791e-07
    outer loop
      vertex -6.61737 7.08241 -2.73267
      vertex -3.12511 2.27574 -3.52031
      vertex -6.23489 6.55597 -5.02328
    endloop
  endfacet
  facet normal -0.809016 -0.587786 -1.8867e-06
    outer loop
      vertex -1.19864 3.6754 -3.52031
      vertex -4.6909 8.48207 -2.73267
      vertex -4.30842 7.95564 -5.02328
    endloop
  endfacet
  facet normal -0.809016 -0.587786 7.79794e-07
    outer loop
      vertex -4.6909 8.48207 -2.73267
      vertex -1.19864 3.6754 -3.52031
      vertex -1.58112 4.20184 -1.22971
    endloop
  endfacet
  facet normal 0 0 -1
    outer loop
      vertex 7.56971 -4.46258 -6.39765
      vertex 3.08235 1.00152 -6.39765
      vertex 8.74707 -0.839059 -6.39765
    endloop
  endfacet
  facet normal 0 -0 -1
    outer loop
      vertex 3.08235 1.00152 -6.39765
      vertex 7.56971 -4.46258 -6.39765
      vertex 1.905 -2.62201 -6.39765
    endloop
  endfacet
  facet normal 0 0 -1
    outer loop
      vertex 3.08235 1.00152 -6.39765
      vertex 3.50098 8.05967 -6.39765
      vertex 6.58334 5.82021 -6.39765
    endloop
  endfacet
  facet normal 0 0 -1
    outer loop
      vertex 1.05784e-08 3.24098 -6.39765
      vertex 3.08235 1.00152 -6.39765
      vertex 1.905 -2.62201 -6.39765
    endloop
  endfacet
  facet normal 0 0 -1
    outer loop
      vertex 3.08235 1.00152 -6.39765
      vertex 1.05784e-08 3.24098 -6.39765
      vertex 3.50098 8.05967 -6.39765
    endloop
  endfacet
  facet normal 0 0 -1
    outer loop
      vertex -7.56971 -4.46258 -6.39765
      vertex -3.08235 1.00152 -6.39765
      vertex -1.905 -2.62201 -6.39765
    endloop
  endfacet
  facet normal 0 0 -1
    outer loop
      vertex -3.08235 1.00152 -6.39765
      vertex -7.56971 -4.46258 -6.39765
      vertex -8.74707 -0.839059 -6.39765
    endloop
  endfacet
  facet normal 0 0 -1
    outer loop
      vertex -1.905 -2.62201 -6.39765
      vertex 1.905 -2.62201 -6.39765
      vertex 1.905 -8.57824 -6.39765
    endloop
  endfacet
  facet normal 0 0 -1
    outer loop
      vertex -1.905 -2.62201 -6.39765
      vertex 1.905 -8.57824 -6.39765
      vertex -1.905 -8.57824 -6.39765
    endloop
  endfacet
  facet normal 0 0 -1
    outer loop
      vertex 1.905 -2.62201 -6.39765
      vertex -1.905 -2.62201 -6.39765
      vertex 1.05784e-08 3.24098 -6.39765
    endloop
  endfacet
  facet normal 0 0 -1
    outer loop
      vertex -3.08235 1.00152 -6.39765
      vertex 1.05784e-08 3.24098 -6.39765
      vertex -1.905 -2.62201 -6.39765
    endloop
  endfacet
  facet normal 0 0 -1
    outer loop
      vertex -3.08235 1.00152 -6.39765
      vertex -3.50098 8.05967 -6.39765
      vertex 1.05784e-08 3.24098 -6.39765
    endloop
  endfacet
  facet normal 0 -0 -1
    outer loop
      vertex -3.50098 8.05967 -6.39765
      vertex -3.08235 1.00152 -6.39765
      vertex -6.58334 5.82021 -6.39765
    endloop
  endfacet
endsolid OpenSCAD_Model
