solid OpenSCAD_Model
  facet normal -0.273267 9.67996e-07 0.961938
    outer loop
      vertex -4.64891 1.905 -1.32067
      vertex -4.32872 1.19062 -1.22971
      vertex 0 0 -1e-05
    endloop
  endfacet
  facet normal -0.273265 0 0.961939
    outer loop
      vertex -9.61938 1.19062 -2.73267
      vertex -4.64891 1.905 -1.32067
      vertex -9.61938 1.905 -2.73267
    endloop
  endfacet
  facet normal -0.273266 1.44339e-06 0.961939
    outer loop
      vertex -4.64891 1.905 -1.32067
      vertex -9.61938 1.19062 -2.73267
      vertex -4.32872 1.19062 -1.22971
    endloop
  endfacet
  facet normal -0.273267 0 0.961938
    outer loop
      vertex -4.32872 -2.14727e-15 -1.22971
      vertex 0 0 -1e-05
      vertex -4.32872 1.19062 -1.22971
    endloop
  endfacet
  facet normal -0.273267 0 0.961938
    outer loop
      vertex -4.32872 -1.19062 -1.22971
      vertex 0 0 -1e-05
      vertex -4.32872 -2.14727e-15 -1.22971
    endloop
  endfacet
  facet normal -0.273267 -9.67996e-07 0.961938
    outer loop
      vertex -4.32872 -1.19062 -1.22971
      vertex -4.64891 -1.905 -1.32067
      vertex 0 0 -1e-05
    endloop
  endfacet
  facet normal -0.273266 -1.44339e-06 0.961939
    outer loop
      vertex -9.61938 -1.19062 -2.73267
      vertex -4.64891 -1.905 -1.32067
      vertex -4.32872 -1.19062 -1.22971
    endloop
  endfacet
  facet normal -0.273265 0 0.961939
    outer loop
      vertex -4.64891 -1.905 -1.32067
      vertex -9.61938 -1.19062 -2.73267
      vertex -9.61938 -1.905 -2.73267
    endloop
  endfacet
  facet normal -0.162459 -0.262867 0.951056
    outer loop
      vertex -3.41682 -1.905 -1.1102
      vertex 0 -3.62352 -1.00153
      vertex 0 0 -1e-05
    endloop
  endfacet
  facet normal -0.162461 -0.26287 0.951055
    outer loop
      vertex -3.2628 -3.01463 -1.39059
      vertex 0 -3.62352 -1.00153
      vertex -3.41682 -1.905 -1.1102
    endloop
  endfacet
  facet normal -0.16246 -0.262867 0.951056
    outer loop
      vertex 0 -3.62352 -1.00153
      vertex -3.2628 -3.01463 -1.39059
      vertex -1.23719 -4.26652 -1.39059
    endloop
  endfacet
  facet normal -0.162463 -0.26286 0.951058
    outer loop
      vertex -3.41682 -1.905 -1.1102
      vertex 0 0 -1e-05
      vertex -4.64891 -1.905 -1.32067
    endloop
  endfacet
  facet normal -0.162463 -0.262863 0.951057
    outer loop
      vertex -1.23719 -4.26652 -1.39059
      vertex -3.37951 -9.09169 -3.09018
      vertex 0 -3.62352 -1.00153
    endloop
  endfacet
  facet normal -0.16246 -0.262864 0.951057
    outer loop
      vertex -3.37951 -9.09169 -3.09018
      vertex -1.23719 -4.26652 -1.39059
      vertex -3.98719 -8.71612 -3.09018
    endloop
  endfacet
  facet normal -0.162454 -0.262869 0.951056
    outer loop
      vertex -6.62049 -7.08865 -3.09018
      vertex -3.2628 -3.01463 -1.39059
      vertex -3.41682 -1.905 -1.1102
    endloop
  endfacet
  facet normal -0.162459 -0.262866 0.951057
    outer loop
      vertex -3.2628 -3.01463 -1.39059
      vertex -6.62049 -7.08865 -3.09018
      vertex -6.0128 -7.46422 -3.09018
    endloop
  endfacet
  facet normal 0.162461 -0.26287 0.951055
    outer loop
      vertex 1.00549e-22 -3.62352 -1.00153
      vertex 3.2628 -3.01463 -1.39059
      vertex 3.41682 -1.905 -1.1102
    endloop
  endfacet
  facet normal 0.16246 -0.262867 0.951056
    outer loop
      vertex 3.2628 -3.01463 -1.39059
      vertex 1.00549e-22 -3.62352 -1.00153
      vertex 1.23719 -4.26652 -1.39059
    endloop
  endfacet
  facet normal 0.162463 -0.26286 0.951058
    outer loop
      vertex 0 0 -1e-05
      vertex 3.41682 -1.905 -1.1102
      vertex 4.64891 -1.905 -1.32067
    endloop
  endfacet
  facet normal 0.162459 -0.262867 0.951056
    outer loop
      vertex 0 0 -1e-05
      vertex 1.00549e-22 -3.62352 -1.00153
      vertex 3.41682 -1.905 -1.1102
    endloop
  endfacet
  facet normal 0 -0.266406 0.963861
    outer loop
      vertex 1.00549e-22 -3.62352 -1.00153
      vertex 0 0 -1e-05
      vertex 0 -3.62352 -1.00153
    endloop
  endfacet
  facet normal 0.162454 -0.262869 0.951056
    outer loop
      vertex 3.2628 -3.01463 -1.39059
      vertex 6.62049 -7.08865 -3.09018
      vertex 3.41682 -1.905 -1.1102
    endloop
  endfacet
  facet normal 0.162459 -0.262866 0.951057
    outer loop
      vertex 6.62049 -7.08865 -3.09018
      vertex 3.2628 -3.01463 -1.39059
      vertex 6.0128 -7.46422 -3.09018
    endloop
  endfacet
  facet normal 0.16246 -0.262864 0.951057
    outer loop
      vertex 1.23719 -4.26652 -1.39059
      vertex 3.37951 -9.09169 -3.09018
      vertex 3.98719 -8.71612 -3.09018
    endloop
  endfacet
  facet normal 0.162463 -0.262863 0.951057
    outer loop
      vertex 3.37951 -9.09169 -3.09018
      vertex 1.23719 -4.26652 -1.39059
      vertex 1.00549e-22 -3.62352 -1.00153
    endloop
  endfacet
  facet normal 0.273265 0 0.961939
    outer loop
      vertex 4.64891 1.905 -1.32067
      vertex 9.61938 1.19062 -2.73267
      vertex 9.61938 1.905 -2.73267
    endloop
  endfacet
  facet normal 0.273266 1.44339e-06 0.961939
    outer loop
      vertex 4.64891 1.905 -1.32067
      vertex 4.32872 1.19062 -1.22971
      vertex 9.61938 1.19062 -2.73267
    endloop
  endfacet
  facet normal 0.273267 0 0.961938
    outer loop
      vertex 4.32872 1.19062 -1.22971
      vertex 0 0 -1e-05
      vertex 4.32872 -1.19062 -1.22971
    endloop
  endfacet
  facet normal 0.273267 9.67996e-07 0.961938
    outer loop
      vertex 0 0 -1e-05
      vertex 4.32872 1.19062 -1.22971
      vertex 4.64891 1.905 -1.32067
    endloop
  endfacet
  facet normal 0.273265 0 0.961939
    outer loop
      vertex 9.61938 -1.19062 -2.73267
      vertex 4.64891 -1.905 -1.32067
      vertex 9.61938 -1.905 -2.73267
    endloop
  endfacet
  facet normal 0.273266 -1.44339e-06 0.961939
    outer loop
      vertex 4.32872 -1.19062 -1.22971
      vertex 4.64891 -1.905 -1.32067
      vertex 9.61938 -1.19062 -2.73267
    endloop
  endfacet
  facet normal 0.273267 -9.67996e-07 0.961938
    outer loop
      vertex 4.64891 -1.905 -1.32067
      vertex 4.32872 -1.19062 -1.22971
      vertex 0 0 -1e-05
    endloop
  endfacet
  facet normal 0.16246 0.262864 0.951057
    outer loop
      vertex 3.37951 9.09169 -3.09018
      vertex 1.23719 4.26652 -1.39059
      vertex 3.98719 8.71612 -3.09018
    endloop
  endfacet
  facet normal 0.162463 0.262863 0.951057
    outer loop
      vertex 1.23719 4.26652 -1.39059
      vertex 3.37951 9.09169 -3.09018
      vertex 0 3.62352 -1.00153
    endloop
  endfacet
  facet normal 0.162459 0.262866 0.951057
    outer loop
      vertex 3.2628 3.01463 -1.39059
      vertex 6.62049 7.08865 -3.09018
      vertex 6.0128 7.46422 -3.09018
    endloop
  endfacet
  facet normal 0.162454 0.262869 0.951056
    outer loop
      vertex 6.62049 7.08865 -3.09018
      vertex 3.2628 3.01463 -1.39059
      vertex 3.41682 1.905 -1.1102
    endloop
  endfacet
  facet normal 0.16246 0.262867 0.951056
    outer loop
      vertex 0 3.62352 -1.00153
      vertex 3.2628 3.01463 -1.39059
      vertex 1.23719 4.26652 -1.39059
    endloop
  endfacet
  facet normal 0.162461 0.26287 0.951055
    outer loop
      vertex 3.2628 3.01463 -1.39059
      vertex 0 3.62352 -1.00153
      vertex 3.41682 1.905 -1.1102
    endloop
  endfacet
  facet normal 0.162463 0.26286 0.951058
    outer loop
      vertex 3.41682 1.905 -1.1102
      vertex 0 0 -1e-05
      vertex 4.64891 1.905 -1.32067
    endloop
  endfacet
  facet normal 0.162459 0.262867 0.951056
    outer loop
      vertex 0 0 -1e-05
      vertex 3.41682 1.905 -1.1102
      vertex 0 3.62352 -1.00153
    endloop
  endfacet
  facet normal -0.162459 0.262866 0.951057
    outer loop
      vertex -6.62049 7.08865 -3.09018
      vertex -3.2628 3.01463 -1.39059
      vertex -6.0128 7.46422 -3.09018
    endloop
  endfacet
  facet normal -0.162454 0.262869 0.951056
    outer loop
      vertex -3.2628 3.01463 -1.39059
      vertex -6.62049 7.08865 -3.09018
      vertex -3.41682 1.905 -1.1102
    endloop
  endfacet
  facet normal -0.162463 0.262863 0.951057
    outer loop
      vertex -3.37951 9.09169 -3.09018
      vertex -1.23719 4.26652 -1.39059
      vertex -3.56092e-16 3.62352 -1.00153
    endloop
  endfacet
  facet normal -0.16246 0.262864 0.951057
    outer loop
      vertex -1.23719 4.26652 -1.39059
      vertex -3.37951 9.09169 -3.09018
      vertex -3.98719 8.71612 -3.09018
    endloop
  endfacet
  facet normal -0 0.266406 0.963861
    outer loop
      vertex -3.56092e-16 3.62352 -1.00153
      vertex 0 0 -1e-05
      vertex 0 3.62352 -1.00153
    endloop
  endfacet
  facet normal -0.16246 0.262867 0.951056
    outer loop
      vertex -3.2628 3.01463 -1.39059
      vertex -3.56092e-16 3.62352 -1.00153
      vertex -1.23719 4.26652 -1.39059
    endloop
  endfacet
  facet normal -0.162461 0.26287 0.951055
    outer loop
      vertex -3.56092e-16 3.62352 -1.00153
      vertex -3.2628 3.01463 -1.39059
      vertex -3.41682 1.905 -1.1102
    endloop
  endfacet
  facet normal -0.162459 0.262867 0.951056
    outer loop
      vertex -3.56092e-16 3.62352 -1.00153
      vertex -3.41682 1.905 -1.1102
      vertex 0 0 -1e-05
    endloop
  endfacet
  facet normal -0.162463 0.26286 0.951058
    outer loop
      vertex 0 0 -1e-05
      vertex -3.41682 1.905 -1.1102
      vertex -4.64891 1.905 -1.32067
    endloop
  endfacet
  facet normal -0.961939 2.41401e-06 -0.273266
    outer loop
      vertex -8.48846 1.905 -6.71369
      vertex -8.96867 1.19062 -5.02328
      vertex -9.61938 1.905 -2.73267
    endloop
  endfacet
  facet normal -0.961938 0 -0.273266
    outer loop
      vertex -8.48846 -4.21072e-15 -6.71369
      vertex -8.96867 1.19062 -5.02328
      vertex -8.48846 1.905 -6.71369
    endloop
  endfacet
  facet normal -0.961938 -0 -0.273266
    outer loop
      vertex -8.96867 1.19062 -5.02328
      vertex -8.48846 -4.21072e-15 -6.71369
      vertex -8.96867 -4.44893e-15 -5.02328
    endloop
  endfacet
  facet normal -0.961939 -0 -0.273265
    outer loop
      vertex -9.61938 1.905 -2.73267
      vertex -8.96867 1.19062 -5.02328
      vertex -9.61938 1.19062 -2.73267
    endloop
  endfacet
  facet normal 0 -1 0
    outer loop
      vertex -8.48846 -1.905 -6.71369
      vertex -4.64891 -1.905 -1.32067
      vertex -9.61938 -1.905 -2.73267
    endloop
  endfacet
  facet normal 0 -1 0
    outer loop
      vertex -3.41682 -1.905 -6.71369
      vertex -4.64891 -1.905 -1.32067
      vertex -8.48846 -1.905 -6.71369
    endloop
  endfacet
  facet normal 0 -1 0
    outer loop
      vertex -4.64891 -1.905 -1.32067
      vertex -3.41682 -1.905 -6.71369
      vertex -3.41682 -1.905 -1.1102
    endloop
  endfacet
  facet normal -0.273267 0 0.961938
    outer loop
      vertex -8.96867 1.19062 -5.02328
      vertex -3.67801 -1.82448e-15 -3.52031
      vertex -3.67801 1.19062 -3.52031
    endloop
  endfacet
  facet normal -0.273267 0 0.961938
    outer loop
      vertex -3.67801 -1.82448e-15 -3.52031
      vertex -8.96867 1.19062 -5.02328
      vertex -8.96867 -4.44893e-15 -5.02328
    endloop
  endfacet
  facet normal -0.961939 0 -0.273266
    outer loop
      vertex -3.67801 -1.82448e-15 -3.52031
      vertex -4.32872 1.19062 -1.22971
      vertex -3.67801 1.19062 -3.52031
    endloop
  endfacet
  facet normal -0.961939 -0 -0.273266
    outer loop
      vertex -4.32872 1.19062 -1.22971
      vertex -3.67801 -1.82448e-15 -3.52031
      vertex -4.32872 -2.14727e-15 -1.22971
    endloop
  endfacet
  facet normal 0 -1 0
    outer loop
      vertex -9.61938 1.19062 -2.73267
      vertex -3.67801 1.19062 -3.52031
      vertex -4.32872 1.19062 -1.22971
    endloop
  endfacet
  facet normal -0 -1 0
    outer loop
      vertex -3.67801 1.19062 -3.52031
      vertex -9.61938 1.19062 -2.73267
      vertex -8.96867 1.19062 -5.02328
    endloop
  endfacet
  facet normal -0.499997 -0.809019 -0.309018
    outer loop
      vertex -6.62049 -7.08865 -3.09018
      vertex -5.62595 -6.83827 -5.35487
      vertex -6.0128 -7.46422 -3.09018
    endloop
  endfacet
  facet normal -0.500001 -0.809016 -0.309017
    outer loop
      vertex -5.62595 -6.83827 -5.35487
      vertex -6.00152 -6.08713 -6.71369
      vertex -3.60034 -8.09017 -5.35487
    endloop
  endfacet
  facet normal -0.499999 -0.809017 -0.309018
    outer loop
      vertex -6.00152 -6.08713 -6.71369
      vertex -5.62595 -6.83827 -5.35487
      vertex -6.62049 -7.08865 -3.09018
    endloop
  endfacet
  facet normal -0.500003 -0.809015 -0.309018
    outer loop
      vertex -3.60034 -8.09017 -5.35487
      vertex -3.37951 -9.09169 -3.09018
      vertex -3.98719 -8.71612 -3.09018
    endloop
  endfacet
  facet normal -0.5 -0.809016 -0.309018
    outer loop
      vertex -3.60034 -8.09017 -5.35487
      vertex -2.76054 -8.09017 -6.71369
      vertex -3.37951 -9.09169 -3.09018
    endloop
  endfacet
  facet normal -0.500001 -0.809016 -0.309018
    outer loop
      vertex -2.76054 -8.09017 -6.71369
      vertex -3.60034 -8.09017 -5.35487
      vertex -6.00152 -6.08713 -6.71369
    endloop
  endfacet
  facet normal 0.850651 -0.525731 0
    outer loop
      vertex -3.37951 -9.09169 -3.09018
      vertex 5.75948e-17 -3.62352 -6.71369
      vertex 1.00549e-22 -3.62352 -1.00153
    endloop
  endfacet
  facet normal 0.850651 -0.525731 -7.18486e-07
    outer loop
      vertex 5.75948e-17 -3.62352 -6.71369
      vertex -3.37951 -9.09169 -3.09018
      vertex -2.76054 -8.09017 -6.71369
    endloop
  endfacet
  facet normal 0 0 0
    outer loop
      vertex -3.37951 -9.09169 -3.09018
      vertex 1.00549e-22 -3.62352 -1.00153
      vertex 0 -3.62352 -1.00153
    endloop
  endfacet
  facet normal -0.850651 0.525731 8.83428e-07
    outer loop
      vertex -6.62049 -7.08865 -3.09018
      vertex -3.41682 -1.905 -6.71369
      vertex -6.00152 -6.08713 -6.71369
    endloop
  endfacet
  facet normal -0.850651 0.525731 0
    outer loop
      vertex -3.41682 -1.905 -6.71369
      vertex -6.62049 -7.08865 -3.09018
      vertex -3.41682 -1.905 -1.1102
    endloop
  endfacet
  facet normal -0.16246 -0.262865 0.951057
    outer loop
      vertex -2.87595 -2.38868 -3.65528
      vertex -3.60034 -8.09017 -5.35487
      vertex -0.850337 -3.64058 -3.65528
    endloop
  endfacet
  facet normal -0.16246 -0.262865 0.951057
    outer loop
      vertex -3.60034 -8.09017 -5.35487
      vertex -2.87595 -2.38868 -3.65528
      vertex -5.62595 -6.83827 -5.35487
    endloop
  endfacet
  facet normal -0.499998 -0.809018 -0.309018
    outer loop
      vertex -2.87595 -2.38868 -3.65528
      vertex -1.23719 -4.26652 -1.39059
      vertex -3.2628 -3.01463 -1.39059
    endloop
  endfacet
  facet normal -0.500001 -0.809017 -0.309015
    outer loop
      vertex -1.23719 -4.26652 -1.39059
      vertex -2.87595 -2.38868 -3.65528
      vertex -0.850337 -3.64058 -3.65528
    endloop
  endfacet
  facet normal -0.850651 0.525731 3.09132e-06
    outer loop
      vertex -3.98719 -8.71612 -3.09018
      vertex -0.850337 -3.64058 -3.65528
      vertex -3.60034 -8.09017 -5.35487
    endloop
  endfacet
  facet normal -0.850651 0.525731 -4.66435e-07
    outer loop
      vertex -0.850337 -3.64058 -3.65528
      vertex -3.98719 -8.71612 -3.09018
      vertex -1.23719 -4.26652 -1.39059
    endloop
  endfacet
  facet normal 0.850651 -0.525731 -2.94794e-06
    outer loop
      vertex -6.0128 -7.46422 -3.09018
      vertex -2.87595 -2.38868 -3.65528
      vertex -3.2628 -3.01463 -1.39059
    endloop
  endfacet
  facet normal 0.850651 -0.525731 -2.94794e-06
    outer loop
      vertex -2.87595 -2.38868 -3.65528
      vertex -6.0128 -7.46422 -3.09018
      vertex -5.62595 -6.83827 -5.35487
    endloop
  endfacet
  facet normal 0.500003 -0.809015 -0.309018
    outer loop
      vertex 3.37951 -9.09169 -3.09018
      vertex 3.60034 -8.09017 -5.35487
      vertex 3.98719 -8.71612 -3.09018
    endloop
  endfacet
  facet normal 0.500001 -0.809016 -0.309018
    outer loop
      vertex 6.00152 -6.08713 -6.71369
      vertex 3.60034 -8.09017 -5.35487
      vertex 2.76054 -8.09017 -6.71369
    endloop
  endfacet
  facet normal 0.5 -0.809016 -0.309018
    outer loop
      vertex 2.76054 -8.09017 -6.71369
      vertex 3.60034 -8.09017 -5.35487
      vertex 3.37951 -9.09169 -3.09018
    endloop
  endfacet
  facet normal 0.499997 -0.809019 -0.309018
    outer loop
      vertex 5.62595 -6.83827 -5.35487
      vertex 6.62049 -7.08865 -3.09018
      vertex 6.0128 -7.46422 -3.09018
    endloop
  endfacet
  facet normal 0.499999 -0.809017 -0.309018
    outer loop
      vertex 5.62595 -6.83827 -5.35487
      vertex 6.00152 -6.08713 -6.71369
      vertex 6.62049 -7.08865 -3.09018
    endloop
  endfacet
  facet normal 0.500001 -0.809016 -0.309017
    outer loop
      vertex 3.60034 -8.09017 -5.35487
      vertex 6.00152 -6.08713 -6.71369
      vertex 5.62595 -6.83827 -5.35487
    endloop
  endfacet
  facet normal 0.850651 0.525731 0
    outer loop
      vertex 6.62049 -7.08865 -3.09018
      vertex 3.41682 -1.905 -6.71369
      vertex 3.41682 -1.905 -1.1102
    endloop
  endfacet
  facet normal 0.850651 0.525731 8.83428e-07
    outer loop
      vertex 3.41682 -1.905 -6.71369
      vertex 6.62049 -7.08865 -3.09018
      vertex 6.00152 -6.08713 -6.71369
    endloop
  endfacet
  facet normal -0.850651 -0.525731 -7.18486e-07
    outer loop
      vertex 3.37951 -9.09169 -3.09018
      vertex 5.75948e-17 -3.62352 -6.71369
      vertex 2.76054 -8.09017 -6.71369
    endloop
  endfacet
  facet normal -0.850651 -0.525731 -8.57697e-18
    outer loop
      vertex 5.75948e-17 -3.62352 -6.71369
      vertex 3.37951 -9.09169 -3.09018
      vertex 1.00549e-22 -3.62352 -1.00153
    endloop
  endfacet
  facet normal 0.16246 -0.262865 0.951057
    outer loop
      vertex 2.87595 -2.38868 -3.65528
      vertex 3.60034 -8.09017 -5.35487
      vertex 5.62595 -6.83827 -5.35487
    endloop
  endfacet
  facet normal 0.16246 -0.262865 0.951057
    outer loop
      vertex 3.60034 -8.09017 -5.35487
      vertex 2.87595 -2.38868 -3.65528
      vertex 0.850337 -3.64058 -3.65528
    endloop
  endfacet
  facet normal 0.500001 -0.809017 -0.309015
    outer loop
      vertex 2.87595 -2.38868 -3.65528
      vertex 1.23719 -4.26652 -1.39059
      vertex 0.850337 -3.64058 -3.65528
    endloop
  endfacet
  facet normal 0.499998 -0.809018 -0.309018
    outer loop
      vertex 1.23719 -4.26652 -1.39059
      vertex 2.87595 -2.38868 -3.65528
      vertex 3.2628 -3.01463 -1.39059
    endloop
  endfacet
  facet normal -0.850651 -0.525731 -2.94794e-06
    outer loop
      vertex 6.0128 -7.46422 -3.09018
      vertex 2.87595 -2.38868 -3.65528
      vertex 5.62595 -6.83827 -5.35487
    endloop
  endfacet
  facet normal -0.850651 -0.525731 -2.94794e-06
    outer loop
      vertex 2.87595 -2.38868 -3.65528
      vertex 6.0128 -7.46422 -3.09018
      vertex 3.2628 -3.01463 -1.39059
    endloop
  endfacet
  facet normal 0.850651 0.525731 -4.66435e-07
    outer loop
      vertex 3.98719 -8.71612 -3.09018
      vertex 0.850337 -3.64058 -3.65528
      vertex 1.23719 -4.26652 -1.39059
    endloop
  endfacet
  facet normal 0.850651 0.525731 3.09132e-06
    outer loop
      vertex 0.850337 -3.64058 -3.65528
      vertex 3.98719 -8.71612 -3.09018
      vertex 3.60034 -8.09017 -5.35487
    endloop
  endfacet
  facet normal 0.961939 0 -0.273265
    outer loop
      vertex 9.61938 -1.19062 -2.73267
      vertex 9.61938 -1.905 -2.73267
      vertex 8.96867 -1.19062 -5.02328
    endloop
  endfacet
  facet normal 0.961939 0 -0.273265
    outer loop
      vertex 8.96867 1.19062 -5.02328
      vertex 9.61938 1.905 -2.73267
      vertex 9.61938 1.19062 -2.73267
    endloop
  endfacet
  facet normal 0.961939 2.41401e-06 -0.273266
    outer loop
      vertex 9.61938 1.905 -2.73267
      vertex 8.96867 1.19062 -5.02328
      vertex 8.48846 1.905 -6.71369
    endloop
  endfacet
  facet normal 0.961938 0 -0.273266
    outer loop
      vertex 8.96867 -1.19062 -5.02328
      vertex 8.48846 1.905 -6.71369
      vertex 8.96867 1.19062 -5.02328
    endloop
  endfacet
  facet normal 0.961938 0 -0.273266
    outer loop
      vertex 8.96867 -1.19062 -5.02328
      vertex 8.48846 -1.905 -6.71369
      vertex 8.48846 1.905 -6.71369
    endloop
  endfacet
  facet normal 0.961939 -2.41401e-06 -0.273266
    outer loop
      vertex 8.48846 -1.905 -6.71369
      vertex 8.96867 -1.19062 -5.02328
      vertex 9.61938 -1.905 -2.73267
    endloop
  endfacet
  facet normal 0 1 -0
    outer loop
      vertex 8.48846 1.905 -6.71369
      vertex 4.64891 1.905 -1.32067
      vertex 9.61938 1.905 -2.73267
    endloop
  endfacet
  facet normal 0 1 0
    outer loop
      vertex 3.41682 1.905 -6.71369
      vertex 4.64891 1.905 -1.32067
      vertex 8.48846 1.905 -6.71369
    endloop
  endfacet
  facet normal 0 1 0
    outer loop
      vertex 4.64891 1.905 -1.32067
      vertex 3.41682 1.905 -6.71369
      vertex 3.41682 1.905 -1.1102
    endloop
  endfacet
  facet normal 0 -1 0
    outer loop
      vertex 3.41682 -1.905 -6.71369
      vertex 4.64891 -1.905 -1.32067
      vertex 3.41682 -1.905 -1.1102
    endloop
  endfacet
  facet normal 0 -1 -0
    outer loop
      vertex 4.64891 -1.905 -1.32067
      vertex 3.41682 -1.905 -6.71369
      vertex 8.48846 -1.905 -6.71369
    endloop
  endfacet
  facet normal 0 -1 0
    outer loop
      vertex 4.64891 -1.905 -1.32067
      vertex 8.48846 -1.905 -6.71369
      vertex 9.61938 -1.905 -2.73267
    endloop
  endfacet
  facet normal 0.273267 0 0.961938
    outer loop
      vertex 3.67801 1.19062 -3.52031
      vertex 8.96867 -1.19062 -5.02328
      vertex 8.96867 1.19062 -5.02328
    endloop
  endfacet
  facet normal 0.273267 0 0.961938
    outer loop
      vertex 8.96867 -1.19062 -5.02328
      vertex 3.67801 1.19062 -3.52031
      vertex 3.67801 -1.19062 -3.52031
    endloop
  endfacet
  facet normal 0.961939 0 -0.273266
    outer loop
      vertex 4.32872 -1.19062 -1.22971
      vertex 3.67801 1.19062 -3.52031
      vertex 4.32872 1.19062 -1.22971
    endloop
  endfacet
  facet normal 0.961939 0 -0.273266
    outer loop
      vertex 3.67801 1.19062 -3.52031
      vertex 4.32872 -1.19062 -1.22971
      vertex 3.67801 -1.19062 -3.52031
    endloop
  endfacet
  facet normal 0 -1 0
    outer loop
      vertex 3.67801 1.19062 -3.52031
      vertex 9.61938 1.19062 -2.73267
      vertex 4.32872 1.19062 -1.22971
    endloop
  endfacet
  facet normal 0 -1 0
    outer loop
      vertex 9.61938 1.19062 -2.73267
      vertex 3.67801 1.19062 -3.52031
      vertex 8.96867 1.19062 -5.02328
    endloop
  endfacet
  facet normal 0 1 0
    outer loop
      vertex 9.61938 -1.19062 -2.73267
      vertex 3.67801 -1.19062 -3.52031
      vertex 4.32872 -1.19062 -1.22971
    endloop
  endfacet
  facet normal -0 1 0
    outer loop
      vertex 3.67801 -1.19062 -3.52031
      vertex 9.61938 -1.19062 -2.73267
      vertex 8.96867 -1.19062 -5.02328
    endloop
  endfacet
  facet normal 0.499997 0.809019 -0.309018
    outer loop
      vertex 6.62049 7.08865 -3.09018
      vertex 5.62595 6.83827 -5.35487
      vertex 6.0128 7.46422 -3.09018
    endloop
  endfacet
  facet normal 0.500001 0.809016 -0.309017
    outer loop
      vertex 5.62595 6.83827 -5.35487
      vertex 6.00152 6.08713 -6.71369
      vertex 3.60034 8.09017 -5.35487
    endloop
  endfacet
  facet normal 0.499999 0.809017 -0.309018
    outer loop
      vertex 6.00152 6.08713 -6.71369
      vertex 5.62595 6.83827 -5.35487
      vertex 6.62049 7.08865 -3.09018
    endloop
  endfacet
  facet normal 0.500003 0.809015 -0.309018
    outer loop
      vertex 3.60034 8.09017 -5.35487
      vertex 3.37951 9.09169 -3.09018
      vertex 3.98719 8.71612 -3.09018
    endloop
  endfacet
  facet normal 0.5 0.809016 -0.309018
    outer loop
      vertex 3.60034 8.09017 -5.35487
      vertex 2.76054 8.09017 -6.71369
      vertex 3.37951 9.09169 -3.09018
    endloop
  endfacet
  facet normal 0.500001 0.809016 -0.309018
    outer loop
      vertex 2.76054 8.09017 -6.71369
      vertex 3.60034 8.09017 -5.35487
      vertex 6.00152 6.08713 -6.71369
    endloop
  endfacet
  facet normal -0.850651 0.525731 -7.18486e-07
    outer loop
      vertex -2.79858e-16 3.62352 -6.71369
      vertex 3.37951 9.09169 -3.09018
      vertex 2.76054 8.09017 -6.71369
    endloop
  endfacet
  facet normal -0.850651 0.525731 0
    outer loop
      vertex 3.37951 9.09169 -3.09018
      vertex -2.79858e-16 3.62352 -6.71369
      vertex -3.56092e-16 3.62352 -1.00153
    endloop
  endfacet
  facet normal -0 0.356821 0.934173
    outer loop
      vertex -3.56092e-16 3.62352 -1.00153
      vertex 0 3.62352 -1.00153
      vertex 3.37951 9.09169 -3.09018
    endloop
  endfacet
  facet normal 0.850651 -0.525731 0
    outer loop
      vertex 3.41682 1.905 -6.71369
      vertex 6.62049 7.08865 -3.09018
      vertex 3.41682 1.905 -1.1102
    endloop
  endfacet
  facet normal 0.850651 -0.525731 8.83428e-07
    outer loop
      vertex 6.62049 7.08865 -3.09018
      vertex 3.41682 1.905 -6.71369
      vertex 6.00152 6.08713 -6.71369
    endloop
  endfacet
  facet normal 0.16246 0.262865 0.951057
    outer loop
      vertex 3.60034 8.09017 -5.35487
      vertex 2.87595 2.38868 -3.65528
      vertex 5.62595 6.83827 -5.35487
    endloop
  endfacet
  facet normal 0.16246 0.262865 0.951057
    outer loop
      vertex 2.87595 2.38868 -3.65528
      vertex 3.60034 8.09017 -5.35487
      vertex 0.850337 3.64058 -3.65528
    endloop
  endfacet
  facet normal 0.499998 0.809018 -0.309018
    outer loop
      vertex 2.87595 2.38868 -3.65528
      vertex 1.23719 4.26652 -1.39059
      vertex 3.2628 3.01463 -1.39059
    endloop
  endfacet
  facet normal 0.500001 0.809017 -0.309015
    outer loop
      vertex 1.23719 4.26652 -1.39059
      vertex 2.87595 2.38868 -3.65528
      vertex 0.850337 3.64058 -3.65528
    endloop
  endfacet
  facet normal 0.850651 -0.525731 -4.66435e-07
    outer loop
      vertex 0.850337 3.64058 -3.65528
      vertex 3.98719 8.71612 -3.09018
      vertex 1.23719 4.26652 -1.39059
    endloop
  endfacet
  facet normal 0.850651 -0.525731 3.09132e-06
    outer loop
      vertex 3.98719 8.71612 -3.09018
      vertex 0.850337 3.64058 -3.65528
      vertex 3.60034 8.09017 -5.35487
    endloop
  endfacet
  facet normal -0.850651 0.525731 -2.94794e-06
    outer loop
      vertex 2.87595 2.38868 -3.65528
      vertex 6.0128 7.46422 -3.09018
      vertex 5.62595 6.83827 -5.35487
    endloop
  endfacet
  facet normal -0.850651 0.525731 -2.94794e-06
    outer loop
      vertex 6.0128 7.46422 -3.09018
      vertex 2.87595 2.38868 -3.65528
      vertex 3.2628 3.01463 -1.39059
    endloop
  endfacet
  facet normal -0.500003 0.809015 -0.309018
    outer loop
      vertex -3.37951 9.09169 -3.09018
      vertex -3.60034 8.09017 -5.35487
      vertex -3.98719 8.71612 -3.09018
    endloop
  endfacet
  facet normal -0.500001 0.809016 -0.309018
    outer loop
      vertex -6.00152 6.08713 -6.71369
      vertex -3.60034 8.09017 -5.35487
      vertex -2.76054 8.09017 -6.71369
    endloop
  endfacet
  facet normal -0.5 0.809016 -0.309018
    outer loop
      vertex -2.76054 8.09017 -6.71369
      vertex -3.60034 8.09017 -5.35487
      vertex -3.37951 9.09169 -3.09018
    endloop
  endfacet
  facet normal -0.499997 0.809019 -0.309018
    outer loop
      vertex -5.62595 6.83827 -5.35487
      vertex -6.62049 7.08865 -3.09018
      vertex -6.0128 7.46422 -3.09018
    endloop
  endfacet
  facet normal -0.499999 0.809017 -0.309018
    outer loop
      vertex -5.62595 6.83827 -5.35487
      vertex -6.00152 6.08713 -6.71369
      vertex -6.62049 7.08865 -3.09018
    endloop
  endfacet
  facet normal -0.500001 0.809016 -0.309017
    outer loop
      vertex -3.60034 8.09017 -5.35487
      vertex -6.00152 6.08713 -6.71369
      vertex -5.62595 6.83827 -5.35487
    endloop
  endfacet
  facet normal -0.850651 -0.525731 8.83428e-07
    outer loop
      vertex -3.41682 1.905 -6.71369
      vertex -6.62049 7.08865 -3.09018
      vertex -6.00152 6.08713 -6.71369
    endloop
  endfacet
  facet normal -0.850651 -0.525731 0
    outer loop
      vertex -6.62049 7.08865 -3.09018
      vertex -3.41682 1.905 -6.71369
      vertex -3.41682 1.905 -1.1102
    endloop
  endfacet
  facet normal 0.850651 0.525731 1.13527e-17
    outer loop
      vertex -2.79858e-16 3.62352 -6.71369
      vertex -3.37951 9.09169 -3.09018
      vertex -3.56092e-16 3.62352 -1.00153
    endloop
  endfacet
  facet normal 0.850651 0.525731 -7.18486e-07
    outer loop
      vertex -3.37951 9.09169 -3.09018
      vertex -2.79858e-16 3.62352 -6.71369
      vertex -2.76054 8.09017 -6.71369
    endloop
  endfacet
  facet normal -0.16246 0.262865 0.951057
    outer loop
      vertex -3.60034 8.09017 -5.35487
      vertex -2.87595 2.38868 -3.65528
      vertex -0.850337 3.64058 -3.65528
    endloop
  endfacet
  facet normal -0.16246 0.262865 0.951057
    outer loop
      vertex -2.87595 2.38868 -3.65528
      vertex -3.60034 8.09017 -5.35487
      vertex -5.62595 6.83827 -5.35487
    endloop
  endfacet
  facet normal -0.500001 0.809017 -0.309015
    outer loop
      vertex -2.87595 2.38868 -3.65528
      vertex -1.23719 4.26652 -1.39059
      vertex -0.850337 3.64058 -3.65528
    endloop
  endfacet
  facet normal -0.499998 0.809018 -0.309018
    outer loop
      vertex -1.23719 4.26652 -1.39059
      vertex -2.87595 2.38868 -3.65528
      vertex -3.2628 3.01463 -1.39059
    endloop
  endfacet
  facet normal 0.850651 0.525731 -2.94794e-06
    outer loop
      vertex -2.87595 2.38868 -3.65528
      vertex -6.0128 7.46422 -3.09018
      vertex -3.2628 3.01463 -1.39059
    endloop
  endfacet
  facet normal 0.850651 0.525731 -2.94794e-06
    outer loop
      vertex -6.0128 7.46422 -3.09018
      vertex -2.87595 2.38868 -3.65528
      vertex -5.62595 6.83827 -5.35487
    endloop
  endfacet
  facet normal -0.850651 -0.525731 3.09132e-06
    outer loop
      vertex -0.850337 3.64058 -3.65528
      vertex -3.98719 8.71612 -3.09018
      vertex -3.60034 8.09017 -5.35487
    endloop
  endfacet
  facet normal -0.850651 -0.525731 -4.66435e-07
    outer loop
      vertex -3.98719 8.71612 -3.09018
      vertex -0.850337 3.64058 -3.65528
      vertex -1.23719 4.26652 -1.39059
    endloop
  endfacet
  facet normal -0.961938 0 -0.273266
    outer loop
      vertex -8.48846 -4.21072e-15 -6.71369
      vertex -8.96867 -1.19062 -5.02328
      vertex -8.96867 -4.44893e-15 -5.02328
    endloop
  endfacet
  facet normal -0.961938 0 -0.273266
    outer loop
      vertex -8.48846 -1.905 -6.71369
      vertex -8.96867 -1.19062 -5.02328
      vertex -8.48846 -4.21072e-15 -6.71369
    endloop
  endfacet
  facet normal -0.961939 -2.41401e-06 -0.273266
    outer loop
      vertex -9.61938 -1.905 -2.73267
      vertex -8.96867 -1.19062 -5.02328
      vertex -8.48846 -1.905 -6.71369
    endloop
  endfacet
  facet normal -0.961939 0 -0.273265
    outer loop
      vertex -8.96867 -1.19062 -5.02328
      vertex -9.61938 -1.905 -2.73267
      vertex -9.61938 -1.19062 -2.73267
    endloop
  endfacet
  facet normal 0 1 -0
    outer loop
      vertex -3.41682 1.905 -6.71369
      vertex -4.64891 1.905 -1.32067
      vertex -3.41682 1.905 -1.1102
    endloop
  endfacet
  facet normal 0 1 0
    outer loop
      vertex -4.64891 1.905 -1.32067
      vertex -3.41682 1.905 -6.71369
      vertex -8.48846 1.905 -6.71369
    endloop
  endfacet
  facet normal 0 1 0
    outer loop
      vertex -4.64891 1.905 -1.32067
      vertex -8.48846 1.905 -6.71369
      vertex -9.61938 1.905 -2.73267
    endloop
  endfacet
  facet normal -0.273267 0 0.961938
    outer loop
      vertex -8.96867 -4.44893e-15 -5.02328
      vertex -3.67801 -1.19062 -3.52031
      vertex -3.67801 -1.82448e-15 -3.52031
    endloop
  endfacet
  facet normal -0.273267 0 0.961938
    outer loop
      vertex -3.67801 -1.19062 -3.52031
      vertex -8.96867 -4.44893e-15 -5.02328
      vertex -8.96867 -1.19062 -5.02328
    endloop
  endfacet
  facet normal -0.961939 0 -0.273266
    outer loop
      vertex -3.67801 -1.19062 -3.52031
      vertex -4.32872 -2.14727e-15 -1.22971
      vertex -3.67801 -1.82448e-15 -3.52031
    endloop
  endfacet
  facet normal -0.961939 -0 -0.273266
    outer loop
      vertex -4.32872 -2.14727e-15 -1.22971
      vertex -3.67801 -1.19062 -3.52031
      vertex -4.32872 -1.19062 -1.22971
    endloop
  endfacet
  facet normal 0 1 0
    outer loop
      vertex -3.67801 -1.19062 -3.52031
      vertex -9.61938 -1.19062 -2.73267
      vertex -4.32872 -1.19062 -1.22971
    endloop
  endfacet
  facet normal 0 1 0
    outer loop
      vertex -9.61938 -1.19062 -2.73267
      vertex -3.67801 -1.19062 -3.52031
      vertex -8.96867 -1.19062 -5.02328
    endloop
  endfacet
  facet normal 0 0 -1
    outer loop
      vertex 5.75948e-17 -3.62352 -6.71369
      vertex 3.41682 -1.905 -6.71369
      vertex 2.76054 -8.09017 -6.71369
    endloop
  endfacet
  facet normal 0 0 -1
    outer loop
      vertex 2.76054 -8.09017 -6.71369
      vertex 3.41682 -1.905 -6.71369
      vertex 6.00152 -6.08713 -6.71369
    endloop
  endfacet
  facet normal 0 0 -1
    outer loop
      vertex 3.41682 -1.905 -6.71369
      vertex 8.48846 1.905 -6.71369
      vertex 8.48846 -1.905 -6.71369
    endloop
  endfacet
  facet normal -0 0 -1
    outer loop
      vertex 8.48846 1.905 -6.71369
      vertex 3.41682 -1.905 -6.71369
      vertex 3.41682 1.905 -6.71369
    endloop
  endfacet
  facet normal 0 0 -1
    outer loop
      vertex 3.41682 1.905 -6.71369
      vertex 2.76054 8.09017 -6.71369
      vertex 6.00152 6.08713 -6.71369
    endloop
  endfacet
  facet normal -0 0 -1
    outer loop
      vertex 3.41682 -1.905 -6.71369
      vertex 5.75948e-17 -3.62352 -6.71369
      vertex 3.41682 1.905 -6.71369
    endloop
  endfacet
  facet normal 0 0 -1
    outer loop
      vertex -2.79858e-16 3.62352 -6.71369
      vertex 3.41682 1.905 -6.71369
      vertex 5.75948e-17 -3.62352 -6.71369
    endloop
  endfacet
  facet normal 0 0 -1
    outer loop
      vertex 3.41682 1.905 -6.71369
      vertex -2.79858e-16 3.62352 -6.71369
      vertex 2.76054 8.09017 -6.71369
    endloop
  endfacet
  facet normal 0 0 -1
    outer loop
      vertex -3.41682 -1.905 -6.71369
      vertex 5.75948e-17 -3.62352 -6.71369
      vertex -2.76054 -8.09017 -6.71369
    endloop
  endfacet
  facet normal 0 0 -1
    outer loop
      vertex 5.75948e-17 -3.62352 -6.71369
      vertex -3.41682 -1.905 -6.71369
      vertex -2.79858e-16 3.62352 -6.71369
    endloop
  endfacet
  facet normal 0 0 -1
    outer loop
      vertex -3.41682 1.905 -6.71369
      vertex -2.79858e-16 3.62352 -6.71369
      vertex -3.41682 -1.905 -6.71369
    endloop
  endfacet
  facet normal 0 -0 -1
    outer loop
      vertex -3.41682 -1.905 -6.71369
      vertex -2.76054 -8.09017 -6.71369
      vertex -6.00152 -6.08713 -6.71369
    endloop
  endfacet
  facet normal 0 0 -1
    outer loop
      vertex -8.48846 -4.21072e-15 -6.71369
      vertex -3.41682 -1.905 -6.71369
      vertex -8.48846 -1.905 -6.71369
    endloop
  endfacet
  facet normal 0 0 -1
    outer loop
      vertex -3.41682 -1.905 -6.71369
      vertex -8.48846 -4.21072e-15 -6.71369
      vertex -3.41682 1.905 -6.71369
    endloop
  endfacet
  facet normal -0 0 -1
    outer loop
      vertex -3.41682 1.905 -6.71369
      vertex -8.48846 -4.21072e-15 -6.71369
      vertex -8.48846 1.905 -6.71369
    endloop
  endfacet
  facet normal -0 0 -1
    outer loop
      vertex -2.79858e-16 3.62352 -6.71369
      vertex -3.41682 1.905 -6.71369
      vertex -2.76054 8.09017 -6.71369
    endloop
  endfacet
  facet normal 0 0 -1
    outer loop
      vertex -2.76054 8.09017 -6.71369
      vertex -3.41682 1.905 -6.71369
      vertex -6.00152 6.08713 -6.71369
    endloop
  endfacet
endsolid OpenSCAD_Model
